# xmcd CD database file
#
# Track frame offsets:
#	182
#	44937
#	95835
#	130535
#	170572
#	216762
#	251177
#	289635
#
# Disc length: 4421 seconds
#
# Revision: 0
# Processed by: cddbd v1.5PL3 Copyright (c) Steve Scherf et al.
# Submitted via: CDex 1.60beta1
#
DISCID=7d114308
DTITLE=Kenny Davern and Joe Temperley - Live at the Floating Jazz Festival
DYEAR=2002
DGENRE=Jazz
TTITLE0=Bernie's Tune
TTITLE1=Mood Indigo
TTITLE2=Three Little Words
TTITLE3=Blue Monk
TTITLE4=Blue Lou
TTITLE5=Creole Love Song
TTITLE6=I Can't Believe That You're in Love With Me
TTITLE7=Undecided
EXTD=YEAR: 2002
EXTT0=
EXTT1=
EXTT2=
EXTT3=
EXTT4=
EXTT5=
EXTT6=
EXTT7=
PLAYORDER=
